{
  "accessors": [
    {
      "bufferView": 2,
      "componentType": 5126,
      "count": 42243,
      "max": [
        4.741222858428955,
        39.421043395996094,
        93.16742706298828
      ],
      "min": [
        -4.3887553215026855,
        10.220734596252441,
        3.530959367752075
      ],
      "type": "VEC3"
    },
    {
      "bufferView": 2,
      "byteOffset": 506916,
      "componentType": 5126,
      "count": 42243,
      "max": [
        1.0,
        1.0,
        1.0
      ],
      "min": [
        -1.0,
        -1.0,
        -1.0
      ],
      "type": "VEC3"
    },
    {
      "bufferView": 3,
      "componentType": 5126,
      "count": 42243,
      "max": [
        1.0,
        1.0,
        1.0,
        1.0
      ],
      "min": [
        -1.0,
        -1.0,
        -1.0,
        -1.0
      ],
      "type": "VEC4"
    },
    {
      "bufferView": 1,
      "componentType": 5126,
      "count": 42243,
      "max": [
        0.9985350966453552,
        0.9959410429000854
      ],
      "min": [
        0.0009765923023223877,
        0.0014649033546447754
      ],
      "type": "VEC2"
    },
    {
      "bufferView": 1,
      "byteOffset": 337944,
      "componentType": 5126,
      "count": 42243,
      "max": [
        0.9685964584350586,
        1.0
      ],
      "min": [
        0.0,
        0.6814783215522766
      ],
      "type": "VEC2"
    },
    {
      "bufferView": 1,
      "byteOffset": 675888,
      "componentType": 5126,
      "count": 42243,
      "max": [
        0.9985350966453552,
        0.9959410429000854
      ],
      "min": [
        0.0009765923023223877,
        0.0014649033546447754
      ],
      "type": "VEC2"
    },
    {
      "bufferView": 0,
      "componentType": 5125,
      "count": 136266,
      "type": "SCALAR"
    }
  ],
  "asset": {
    "extras": {
      "author": "blazitt (https://sketchfab.com/blazitt)",
      "license": "CC-BY-4.0 (http://creativecommons.org/licenses/by/4.0/)",
      "source": "https://sketchfab.com/3d-models/m4a4-counter-strike-2-222fd3948aab45eb9d0cbced9c80308a",
      "title": "M4A4 Counter Strike 2"
    },
    "generator": "Sketchfab-15.29.0",
    "version": "2.0"
  },
  "bufferViews": [
    {
      "buffer": 0,
      "byteLength": 545064,
      "name": "floatBufferViews",
      "target": 34963
    },
    {
      "buffer": 0,
      "byteLength": 1013832,
      "byteOffset": 545064,
      "byteStride": 8,
      "name": "floatBufferViews",
      "target": 34962
    },
    {
      "buffer": 0,
      "byteLength": 1013832,
      "byteOffset": 1558896,
      "byteStride": 12,
      "name": "floatBufferViews",
      "target": 34962
    },
    {
      "buffer": 0,
      "byteLength": 675888,
      "byteOffset": 2572728,
      "byteStride": 16,
      "name": "floatBufferViews",
      "target": 34962
    }
  ],
  "buffers": [
    {
      "byteLength": 3248616,
      "uri": "scene.bin"
    }
  ],
  "images": [
    {
      "uri": "textures/weapon_rif_m4a4_baseColor.png"
    },
    {
      "uri": "textures/weapon_rif_m4a4_metallicRoughness.png"
    },
    {
      "uri": "textures/weapon_rif_m4a4_normal.png"
    }
  ],
  "materials": [
    {
      "doubleSided": true,
      "name": "weapon_rif_m4a4",
      "normalTexture": {
        "index": 2
      },
      "pbrMetallicRoughness": {
        "baseColorTexture": {
          "index": 0
        },
        "metallicFactor": 0.0,
        "metallicRoughnessTexture": {
          "index": 1
        }
      }
    }
  ],
  "meshes": [
    {
      "name": "M4A4_CS2_weapon_rif_m4a4_0",
      "primitives": [
        {
          "attributes": {
            "NORMAL": 1,
            "POSITION": 0,
            "TANGENT": 2,
            "TEXCOORD_0": 3,
            "TEXCOORD_1": 4,
            "TEXCOORD_2": 5
          },
          "indices": 6,
          "material": 0,
          "mode": 4
        }
      ]
    }
  ],
  "nodes": [
    {
      "children": [
        1
      ],
      "matrix": [
        1.0,
        0.0,
        0.0,
        0.0,
        0.0,
        2.220446049250313e-16,
        -1.0,
        0.0,
        0.0,
        1.0,
        2.220446049250313e-16,
        0.0,
        0.0,
        0.0,
        0.0,
        1.0
      ],
      "name": "Sketchfab_model"
    },
    {
      "children": [
        2
      ],
      "matrix": [
        0.009999999776482582,
        0.0,
        0.0,
        0.0,
        0.0,
        0.0,
        0.009999999776482582,
        0.0,
        0.0,
        -0.009999999776482582,
        0.0,
        0.0,
        0.0,
        0.0,
        0.0,
        1.0
      ],
      "name": "M4A4_CS2.fbx"
    },
    {
      "children": [
        3
      ],
      "name": "RootNode"
    },
    {
      "children": [
        4
      ],
      "name": "M4A4_CS2"
    },
    {
      "mesh": 0,
      "name": "M4A4_CS2_weapon_rif_m4a4_0"
    }
  ],
  "samplers": [
    {
      "magFilter": 9729,
      "minFilter": 9987,
      "wrapS": 10497,
      "wrapT": 10497
    }
  ],
  "scene": 0,
  "scenes": [
    {
      "name": "Sketchfab_Scene",
      "nodes": [
        0
      ]
    }
  ],
  "textures": [
    {
      "sampler": 0,
      "source": 0
    },
    {
      "sampler": 0,
      "source": 1
    },
    {
      "sampler": 0,
      "source": 2
    }
  ]
}
