{
  "accessors": [
    {
      "bufferView": 2,
      "componentType": 5126,
      "count": 15611,
      "max": [
        2.208906412124634,
        11.860970497131348,
        22.921390533447266
      ],
      "min": [
        -2.230543851852417,
        -5.060728073120117,
        -6.415623664855957
      ],
      "type": "VEC3"
    },
    {
      "bufferView": 2,
      "byteOffset": 187332,
      "componentType": 5126,
      "count": 15611,
      "max": [
        0.9998705983161926,
        1.0,
        0.9999310970306396
      ],
      "min": [
        -1.0,
        -1.0,
        -1.0
      ],
      "type": "VEC3"
    },
    {
      "bufferView": 3,
      "componentType": 5126,
      "count": 15611,
      "max": [
        1.0,
        1.0,
        1.0,
        1.0
      ],
      "min": [
        -1.0,
        -1.0,
        -1.0,
        -1.0
      ],
      "type": "VEC4"
    },
    {
      "bufferView": 1,
      "componentType": 5126,
      "count": 15611,
      "max": [
        0.9975585341453552,
        0.9862666726112366
      ],
      "min": [
        0.0021668141707777977,
        0.0024414658546447754
      ],
      "type": "VEC2"
    },
    {
      "bufferView": 1,
      "byteOffset": 124888,
      "componentType": 5126,
      "count": 15611,
      "max": [
        0.9975585341453552,
        0.9862666726112366
      ],
      "min": [
        0.0021668141707777977,
        0.0024414658546447754
      ],
      "type": "VEC2"
    },
    {
      "bufferView": 1,
      "byteOffset": 249776,
      "componentType": 5126,
      "count": 15611,
      "max": [
        0.9754325747489929,
        1.0
      ],
      "min": [
        0.0,
        0.4461500644683838
      ],
      "type": "VEC2"
    },
    {
      "bufferView": 0,
      "componentType": 5125,
      "count": 54801,
      "type": "SCALAR"
    }
  ],
  "asset": {
    "extras": {
      "author": "blazitt (https://sketchfab.com/blazitt)",
      "license": "CC-BY-4.0 (http://creativecommons.org/licenses/by/4.0/)",
      "source": "https://sketchfab.com/3d-models/deagle-counter-strike-2-8d3c8cef8d904ebebaa1a6cd1d4f56ff",
      "title": "Deagle Counter Strike 2"
    },
    "generator": "Sketchfab-15.29.0",
    "version": "2.0"
  },
  "bufferViews": [
    {
      "buffer": 0,
      "byteLength": 219204,
      "name": "floatBufferViews",
      "target": 34963
    },
    {
      "buffer": 0,
      "byteLength": 374664,
      "byteOffset": 219204,
      "byteStride": 8,
      "name": "floatBufferViews",
      "target": 34962
    },
    {
      "buffer": 0,
      "byteLength": 374664,
      "byteOffset": 593868,
      "byteStride": 12,
      "name": "floatBufferViews",
      "target": 34962
    },
    {
      "buffer": 0,
      "byteLength": 249776,
      "byteOffset": 968532,
      "byteStride": 16,
      "name": "floatBufferViews",
      "target": 34962
    }
  ],
  "buffers": [
    {
      "byteLength": 1218308,
      "uri": "scene.bin"
    }
  ],
  "images": [
    {
      "uri": "textures/weapon_pist_deagle_metallicRoughness.png"
    },
    {
      "uri": "textures/weapon_pist_deagle_normal.png"
    }
  ],
  "materials": [
    {
      "doubleSided": true,
      "name": "weapon_pist_deagle",
      "normalTexture": {
        "index": 1,
        "texCoord": 1
      },
      "pbrMetallicRoughness": {
        "baseColorFactor": [
          0.12944839674216593,
          0.12944839674216593,
          0.12944839674216593,
          1.0
        ],
        "metallicRoughnessTexture": {
          "index": 0
        }
      }
    }
  ],
  "meshes": [
    {
      "name": "Deagle_CS2_weapon_pist_deagle_0",
      "primitives": [
        {
          "attributes": {
            "NORMAL": 1,
            "POSITION": 0,
            "TANGENT": 2,
            "TEXCOORD_0": 3,
            "TEXCOORD_1": 4,
            "TEXCOORD_2": 5
          },
          "indices": 6,
          "material": 0,
          "mode": 4
        }
      ]
    }
  ],
  "nodes": [
    {
      "children": [
        1
      ],
      "matrix": [
        1.0,
        0.0,
        0.0,
        0.0,
        0.0,
        2.220446049250313e-16,
        -1.0,
        0.0,
        0.0,
        1.0,
        2.220446049250313e-16,
        0.0,
        0.0,
        0.0,
        0.0,
        1.0
      ],
      "name": "Sketchfab_model"
    },
    {
      "children": [
        2
      ],
      "matrix": [
        0.009999999776482582,
        0.0,
        0.0,
        0.0,
        0.0,
        0.0,
        0.009999999776482582,
        0.0,
        0.0,
        -0.009999999776482582,
        0.0,
        0.0,
        0.0,
        0.0,
        0.0,
        1.0
      ],
      "name": "Deagle_CS2.fbx"
    },
    {
      "children": [
        3
      ],
      "name": "RootNode"
    },
    {
      "children": [
        4
      ],
      "name": "Deagle_CS2"
    },
    {
      "mesh": 0,
      "name": "Deagle_CS2_weapon_pist_deagle_0"
    }
  ],
  "samplers": [
    {
      "magFilter": 9729,
      "minFilter": 9987,
      "wrapS": 10497,
      "wrapT": 10497
    }
  ],
  "scene": 0,
  "scenes": [
    {
      "name": "Sketchfab_Scene",
      "nodes": [
        0
      ]
    }
  ],
  "textures": [
    {
      "sampler": 0,
      "source": 0
    },
    {
      "sampler": 0,
      "source": 1
    }
  ]
}
