{
  "accessors": [
    {
      "bufferView": 2,
      "componentType": 5126,
      "count": 40155,
      "max": [
        3.4936065673828125,
        20.487712860107422,
        83.61486053466797
      ],
      "min": [
        -4.314418792724609,
        -9.453325271606445,
        -34.06874084472656
      ],
      "type": "VEC3"
    },
    {
      "bufferView": 2,
      "byteOffset": 481860,
      "componentType": 5126,
      "count": 40155,
      "max": [
        1.0,
        1.0,
        1.0
      ],
      "min": [
        -1.0,
        -1.0,
        -1.0
      ],
      "type": "VEC3"
    },
    {
      "bufferView": 3,
      "componentType": 5126,
      "count": 40155,
      "max": [
        1.0,
        1.0,
        1.0,
        1.0
      ],
      "min": [
        -1.0,
        -1.0,
        -1.0,
        -1.0
      ],
      "type": "VEC4"
    },
    {
      "bufferView": 1,
      "componentType": 5126,
      "count": 40155,
      "max": [
        0.9970703125,
        0.9962310791015625
      ],
      "min": [
        0.002712249755859375,
        0.0029296875
      ],
      "type": "VEC2"
    },
    {
      "bufferView": 1,
      "byteOffset": 321240,
      "componentType": 5126,
      "count": 40155,
      "max": [
        0.9970703125,
        0.9962310791015625
      ],
      "min": [
        0.002712249755859375,
        0.0029296875
      ],
      "type": "VEC2"
    },
    {
      "bufferView": 1,
      "byteOffset": 642480,
      "componentType": 5126,
      "count": 40155,
      "max": [
        0.9749805927276611,
        1.0
      ],
      "min": [
        0.0,
        0.7447839975357056
      ],
      "type": "VEC2"
    },
    {
      "bufferView": 0,
      "componentType": 5125,
      "count": 136122,
      "type": "SCALAR"
    }
  ],
  "asset": {
    "extras": {
      "author": "blazitt (https://sketchfab.com/blazitt)",
      "license": "CC-BY-4.0 (http://creativecommons.org/licenses/by/4.0/)",
      "source": "https://sketchfab.com/3d-models/m4a1s-counter-strike-2-c2649f07783b4f979cda0e7773263380",
      "title": "M4A1S Counter Strike 2"
    },
    "generator": "Sketchfab-15.29.0",
    "version": "2.0"
  },
  "bufferViews": [
    {
      "buffer": 0,
      "byteLength": 544488,
      "name": "floatBufferViews",
      "target": 34963
    },
    {
      "buffer": 0,
      "byteLength": 963720,
      "byteOffset": 544488,
      "byteStride": 8,
      "name": "floatBufferViews",
      "target": 34962
    },
    {
      "buffer": 0,
      "byteLength": 963720,
      "byteOffset": 1508208,
      "byteStride": 12,
      "name": "floatBufferViews",
      "target": 34962
    },
    {
      "buffer": 0,
      "byteLength": 642480,
      "byteOffset": 2471928,
      "byteStride": 16,
      "name": "floatBufferViews",
      "target": 34962
    }
  ],
  "buffers": [
    {
      "byteLength": 3114408,
      "uri": "scene.bin"
    }
  ],
  "images": [
    {
      "uri": "textures/weapon_rif_m4a1_silencer_baseColor.png"
    },
    {
      "uri": "textures/weapon_rif_m4a1_silencer_metallicRoughness.png"
    },
    {
      "uri": "textures/weapon_rif_m4a1_silencer_normal.png"
    }
  ],
  "materials": [
    {
      "doubleSided": true,
      "name": "weapon_rif_m4a1_silencer",
      "normalTexture": {
        "index": 2,
        "texCoord": 1
      },
      "pbrMetallicRoughness": {
        "baseColorTexture": {
          "index": 0
        },
        "metallicFactor": 0.0,
        "metallicRoughnessTexture": {
          "index": 1
        }
      }
    }
  ],
  "meshes": [
    {
      "name": "M4A1S_CS2_weapon_rif_m4a1_silencer_0",
      "primitives": [
        {
          "attributes": {
            "NORMAL": 1,
            "POSITION": 0,
            "TANGENT": 2,
            "TEXCOORD_0": 3,
            "TEXCOORD_1": 4,
            "TEXCOORD_2": 5
          },
          "indices": 6,
          "material": 0,
          "mode": 4
        }
      ]
    }
  ],
  "nodes": [
    {
      "children": [
        1
      ],
      "matrix": [
        1.0,
        0.0,
        0.0,
        0.0,
        0.0,
        2.220446049250313e-16,
        -1.0,
        0.0,
        0.0,
        1.0,
        2.220446049250313e-16,
        0.0,
        0.0,
        0.0,
        0.0,
        1.0
      ],
      "name": "Sketchfab_model"
    },
    {
      "children": [
        2
      ],
      "matrix": [
        0.009999999776482582,
        0.0,
        0.0,
        0.0,
        0.0,
        0.0,
        0.009999999776482582,
        0.0,
        0.0,
        -0.009999999776482582,
        0.0,
        0.0,
        0.0,
        0.0,
        0.0,
        1.0
      ],
      "name": "M4A1S_CS2.fbx"
    },
    {
      "children": [
        3
      ],
      "name": "RootNode"
    },
    {
      "children": [
        4
      ],
      "name": "M4A1S_CS2"
    },
    {
      "mesh": 0,
      "name": "M4A1S_CS2_weapon_rif_m4a1_silencer_0"
    }
  ],
  "samplers": [
    {
      "magFilter": 9729,
      "minFilter": 9987,
      "wrapS": 10497,
      "wrapT": 10497
    }
  ],
  "scene": 0,
  "scenes": [
    {
      "name": "Sketchfab_Scene",
      "nodes": [
        0
      ]
    }
  ],
  "textures": [
    {
      "sampler": 0,
      "source": 0
    },
    {
      "sampler": 0,
      "source": 1
    },
    {
      "sampler": 0,
      "source": 2
    }
  ]
}
