{
  "accessors": [
    {
      "bufferView": 2,
      "componentType": 5126,
      "count": 23881,
      "max": [
        2.596351385116577,
        11.491581916809082,
        65.81396484375
      ],
      "min": [
        -4.546438694000244,
        -15.70181655883789,
        -28.894386291503906
      ],
      "type": "VEC3"
    },
    {
      "bufferView": 2,
      "byteOffset": 286572,
      "componentType": 5126,
      "count": 23881,
      "max": [
        1.0,
        1.0,
        1.0
      ],
      "min": [
        -1.0,
        -1.0,
        -1.0
      ],
      "type": "VEC3"
    },
    {
      "bufferView": 3,
      "componentType": 5126,
      "count": 23881,
      "max": [
        1.0,
        1.0,
        1.0,
        1.0
      ],
      "min": [
        -1.0,
        -1.0,
        -1.0,
        -1.0
      ],
      "type": "VEC4"
    },
    {
      "bufferView": 1,
      "componentType": 5126,
      "count": 23881,
      "max": [
        0.9970701932907104,
        0.9973143935203552
      ],
      "min": [
        0.002685628831386566,
        0.0027161240577697754
      ],
      "type": "VEC2"
    },
    {
      "bufferView": 1,
      "byteOffset": 191048,
      "componentType": 5126,
      "count": 23881,
      "max": [
        0.9970701932907104,
        0.9973143935203552
      ],
      "min": [
        0.002685628831386566,
        0.0027161240577697754
      ],
      "type": "VEC2"
    },
    {
      "bufferView": 0,
      "componentType": 5125,
      "count": 78399,
      "type": "SCALAR"
    }
  ],
  "asset": {
    "extras": {
      "author": "blazitt (https://sketchfab.com/blazitt)",
      "license": "CC-BY-4.0 (http://creativecommons.org/licenses/by/4.0/)",
      "source": "https://sketchfab.com/3d-models/ak47-counter-strike-2-f61d46a3eee048999306017d8dd476b6",
      "title": "AK47 Counter Strike 2"
    },
    "generator": "Sketchfab-15.29.0",
    "version": "2.0"
  },
  "bufferViews": [
    {
      "buffer": 0,
      "byteLength": 313596,
      "name": "floatBufferViews",
      "target": 34963
    },
    {
      "buffer": 0,
      "byteLength": 382096,
      "byteOffset": 313596,
      "byteStride": 8,
      "name": "floatBufferViews",
      "target": 34962
    },
    {
      "buffer": 0,
      "byteLength": 573144,
      "byteOffset": 695692,
      "byteStride": 12,
      "name": "floatBufferViews",
      "target": 34962
    },
    {
      "buffer": 0,
      "byteLength": 382096,
      "byteOffset": 1268836,
      "byteStride": 16,
      "name": "floatBufferViews",
      "target": 34962
    }
  ],
  "buffers": [
    {
      "byteLength": 1650932,
      "uri": "scene.bin"
    }
  ],
  "images": [
    {
      "uri": "textures/weapon_rif_ak47_baseColor.png"
    },
    {
      "uri": "textures/weapon_rif_ak47_normal.png"
    }
  ],
  "materials": [
    {
      "doubleSided": true,
      "name": "weapon_rif_ak47",
      "normalTexture": {
        "index": 1
      },
      "pbrMetallicRoughness": {
        "baseColorTexture": {
          "index": 0
        },
        "metallicFactor": 0.0,
        "roughnessFactor": 0.8211145618000169
      }
    }
  ],
  "meshes": [
    {
      "name": "AK47_CS2_weapon_rif_ak47_0",
      "primitives": [
        {
          "attributes": {
            "NORMAL": 1,
            "POSITION": 0,
            "TANGENT": 2,
            "TEXCOORD_0": 3,
            "TEXCOORD_1": 4
          },
          "indices": 5,
          "material": 0,
          "mode": 4
        }
      ]
    }
  ],
  "nodes": [
    {
      "children": [
        1
      ],
      "matrix": [
        1.0,
        0.0,
        0.0,
        0.0,
        0.0,
        2.220446049250313e-16,
        -1.0,
        0.0,
        0.0,
        1.0,
        2.220446049250313e-16,
        0.0,
        0.0,
        0.0,
        0.0,
        1.0
      ],
      "name": "Sketchfab_model"
    },
    {
      "children": [
        2
      ],
      "matrix": [
        0.009999999776482582,
        0.0,
        0.0,
        0.0,
        0.0,
        0.0,
        0.009999999776482582,
        0.0,
        0.0,
        -0.009999999776482582,
        0.0,
        0.0,
        0.0,
        0.0,
        0.0,
        1.0
      ],
      "name": "AK47_CS2.fbx"
    },
    {
      "children": [
        3
      ],
      "name": "RootNode"
    },
    {
      "children": [
        4
      ],
      "name": "AK47_CS2"
    },
    {
      "mesh": 0,
      "name": "AK47_CS2_weapon_rif_ak47_0"
    }
  ],
  "samplers": [
    {
      "magFilter": 9729,
      "minFilter": 9987,
      "wrapS": 10497,
      "wrapT": 10497
    }
  ],
  "scene": 0,
  "scenes": [
    {
      "name": "Sketchfab_Scene",
      "nodes": [
        0
      ]
    }
  ],
  "textures": [
    {
      "sampler": 0,
      "source": 0
    },
    {
      "sampler": 0,
      "source": 1
    }
  ]
}
