{
  "accessors": [
    {
      "bufferView": 2,
      "componentType": 5126,
      "count": 26481,
      "max": [
        2.425379514694214,
        17.400806427001953,
        32.89814758300781
      ],
      "min": [
        -2.6993179321289063,
        -9.085884094238281,
        -23.40989112854004
      ],
      "type": "VEC3"
    },
    {
      "bufferView": 2,
      "byteOffset": 317772,
      "componentType": 5126,
      "count": 26481,
      "max": [
        1.0,
        1.0,
        1.0
      ],
      "min": [
        -1.0,
        -1.0,
        -1.0
      ],
      "type": "VEC3"
    },
    {
      "bufferView": 3,
      "componentType": 5126,
      "count": 26481,
      "max": [
        1.0,
        1.0,
        1.0,
        1.0
      ],
      "min": [
        -1.0,
        -1.0,
        -1.0,
        -1.0
      ],
      "type": "VEC4"
    },
    {
      "bufferView": 1,
      "componentType": 5126,
      "count": 26481,
      "max": [
        0.99658203125,
        0.9967498779296875
      ],
      "min": [
        0.003200531005859375,
        0.00341796875
      ],
      "type": "VEC2"
    },
    {
      "bufferView": 1,
      "byteOffset": 211848,
      "componentType": 5126,
      "count": 26481,
      "max": [
        0.9709418416023254,
        1.0
      ],
      "min": [
        0.0,
        0.5471853613853455
      ],
      "type": "VEC2"
    },
    {
      "bufferView": 1,
      "byteOffset": 423696,
      "componentType": 5126,
      "count": 26481,
      "max": [
        0.99658203125,
        0.9967498779296875
      ],
      "min": [
        0.003200531005859375,
        0.00341796875
      ],
      "type": "VEC2"
    },
    {
      "bufferView": 0,
      "componentType": 5125,
      "count": 93012,
      "type": "SCALAR"
    }
  ],
  "asset": {
    "extras": {
      "author": "blazitt (https://sketchfab.com/blazitt)",
      "license": "CC-BY-4.0 (http://creativecommons.org/licenses/by/4.0/)",
      "source": "https://sketchfab.com/3d-models/mp9-counter-strike-2-3dbcae165cb64385b83bf620b1803c80",
      "title": "MP9 Counter Strike 2"
    },
    "generator": "Sketchfab-15.29.0",
    "version": "2.0"
  },
  "bufferViews": [
    {
      "buffer": 0,
      "byteLength": 372048,
      "name": "floatBufferViews",
      "target": 34963
    },
    {
      "buffer": 0,
      "byteLength": 635544,
      "byteOffset": 372048,
      "byteStride": 8,
      "name": "floatBufferViews",
      "target": 34962
    },
    {
      "buffer": 0,
      "byteLength": 635544,
      "byteOffset": 1007592,
      "byteStride": 12,
      "name": "floatBufferViews",
      "target": 34962
    },
    {
      "buffer": 0,
      "byteLength": 423696,
      "byteOffset": 1643136,
      "byteStride": 16,
      "name": "floatBufferViews",
      "target": 34962
    }
  ],
  "buffers": [
    {
      "byteLength": 2066832,
      "uri": "scene.bin"
    }
  ],
  "images": [
    {
      "uri": "textures/weapon_smg_mp9_baseColor.png"
    },
    {
      "uri": "textures/weapon_smg_mp9_metallicRoughness.png"
    },
    {
      "uri": "textures/weapon_smg_mp9_normal.png"
    }
  ],
  "materials": [
    {
      "doubleSided": true,
      "name": "weapon_smg_mp9",
      "normalTexture": {
        "index": 2
      },
      "pbrMetallicRoughness": {
        "baseColorTexture": {
          "index": 0
        },
        "metallicFactor": 0.0,
        "metallicRoughnessTexture": {
          "index": 1
        }
      }
    }
  ],
  "meshes": [
    {
      "name": "MP9_CS2_weapon_smg_mp9_0",
      "primitives": [
        {
          "attributes": {
            "NORMAL": 1,
            "POSITION": 0,
            "TANGENT": 2,
            "TEXCOORD_0": 3,
            "TEXCOORD_1": 4,
            "TEXCOORD_2": 5
          },
          "indices": 6,
          "material": 0,
          "mode": 4
        }
      ]
    }
  ],
  "nodes": [
    {
      "children": [
        1
      ],
      "matrix": [
        1.0,
        0.0,
        0.0,
        0.0,
        0.0,
        2.220446049250313e-16,
        -1.0,
        0.0,
        0.0,
        1.0,
        2.220446049250313e-16,
        0.0,
        0.0,
        0.0,
        0.0,
        1.0
      ],
      "name": "Sketchfab_model"
    },
    {
      "children": [
        2
      ],
      "matrix": [
        0.009999999776482582,
        0.0,
        0.0,
        0.0,
        0.0,
        0.0,
        0.009999999776482582,
        0.0,
        0.0,
        -0.009999999776482582,
        0.0,
        0.0,
        0.0,
        0.0,
        0.0,
        1.0
      ],
      "name": "MP9_CS2.fbx"
    },
    {
      "children": [
        3
      ],
      "name": "RootNode"
    },
    {
      "children": [
        4
      ],
      "name": "MP9_CS2"
    },
    {
      "mesh": 0,
      "name": "MP9_CS2_weapon_smg_mp9_0"
    }
  ],
  "samplers": [
    {
      "magFilter": 9729,
      "minFilter": 9987,
      "wrapS": 10497,
      "wrapT": 10497
    }
  ],
  "scene": 0,
  "scenes": [
    {
      "name": "Sketchfab_Scene",
      "nodes": [
        0
      ]
    }
  ],
  "textures": [
    {
      "sampler": 0,
      "source": 0
    },
    {
      "sampler": 0,
      "source": 1
    },
    {
      "sampler": 0,
      "source": 2
    }
  ]
}
